<?xml version="1.0" encoding="utf-8"?>
<!-- Generator: Adobe Illustrator 25.2.3, SVG Export Plug-In . SVG Version: 6.00 Build 0)  -->
<svg version="1.1" id="Layer_1" xmlns="http://www.w3.org/2000/svg" xmlns:xlink="http://www.w3.org/1999/xlink" x="0px" y="0px"
	 viewBox="0 0 954.8 300.5" style="enable-background:new 0 0 954.8 300.5;" xml:space="preserve">
<style type="text/css">
	.st0{fill:#414241;}
	.st1{fill:#FF2400;}
</style>
<path class="st0" d="M513.2,117.4c-15.4-15-35.7-22.5-60.7-22.5c-13-0.2-25.9,2.2-37.9,6.9c-11,4.3-20.9,11-28.9,19.7
	c0-13.1-11-24.3-27.8-23.7c-18.8,0.7-28.2,12.6-28.2,28.2v144.7c-0.3,16.2,12.6,29.5,28.8,29.8c16.2,0.3,29.5-12.6,29.8-28.8
	c0-0.4,0-0.7,0-1.1V200c0-18,4.4-31.6,13.2-40.8c8.8-9.1,20.6-13.7,35.3-13.7c13.3,0,23.4,3.9,30.5,11.8s10.5,19.9,10.5,35.9v77.5
	c0,16.2,13.1,29.3,29.3,29.3c16.2,0,29.3-13.1,29.3-29.3v-86.4C536.3,154.7,528.6,132.4,513.2,117.4z"/>
<path class="st0" d="M712.6,275.6c0,12.6-10.2,22.8-22.8,22.8l0,0h-0.1c-7.2,1.5-14.5,2.2-21.8,2.1c-24.1,0-42.7-6.1-55.8-18.4
	s-19.7-30.3-19.7-54.1v-83.1h-8.7c-12.5-0.3-22.3-10.6-22.1-23c0.3-12.1,10-21.8,22.1-22.1h8.7V79.9c0-16.2,13.1-29.3,29.3-29.3
	S651,63.7,651,79.9c0,0,0,0,0,0.1v19.9h27.8c12.5,0.3,22.3,10.6,22.1,23c-0.3,12.1-10,21.8-22.1,22.1H651v82.3
	c0,8.5,2.2,15.1,6.6,19.7c4.4,4.6,10.6,6.9,18.6,6.9c2.8,0,5.6-0.2,8.3-0.7C698.7,250.7,712.6,260.7,712.6,275.6z"/>
<path class="st0" d="M897.2,51v220.2c0,16.2,13.1,29.3,29.3,29.3l0,0l0,0c16.2,0,29.3-13.1,29.3-29.3V51c0-16.2-13.1-29.3-29.3-29.3
	l0,0C910.3,21.7,897.2,34.8,897.2,51L897.2,51z"/>
<path class="st0" d="M147.7,300.5C66.2,300.5,0,234.2,0,152.8S66.2,5.1,147.7,5.1s147.7,66.2,147.7,147.7
	c-0.3,17.3-14.6,31.1-31.9,30.7c-16.9-0.3-30.4-13.9-30.7-30.7c0-47-38.1-85.1-85.1-85.1s-85.1,38.1-85.1,85.1s38.1,85.1,85.1,85.1
	l0,0c17.3,0,31.3,14,31.3,31.3S165,300.5,147.7,300.5L147.7,300.5z"/>
<path class="st1" d="M254.4,292.9c-8.3,0-16.3-3.3-22.1-9.2L159,210.4c-12.2-12.2-12.2-32,0-44.3s32-12.2,44.3,0l73.3,73.3
	c12.2,12.2,12.2,32.1,0,44.3C270.6,289.6,262.7,292.9,254.4,292.9L254.4,292.9z"/>
<path class="st0" d="M874,123.8c0,9.4-5.1,18-13.3,22.5c-6.6,3.6-14.5,2.9-21.6,5c-7.4,2.1-14.2,6.1-19.8,11.5
	c-9.5,9.4-14.3,23.5-14.3,42.3v66.1c0,16.2-13.1,29.3-29.3,29.3s-29.3-13.1-29.3-29.3c0,0,0,0,0-0.1V125c0-14.7,11.9-26.7,26.7-26.7
	h2.6c14.7,0,26.7,12,26.7,26.7c3.5-4.9,7.6-9.2,12.4-12.8c9.3-7.3,21.4-14,33.5-14C862.5,98.1,874,109.5,874,123.8
	C874.1,123.7,874.1,123.8,874,123.8L874,123.8z"/>
<path class="st0" d="M856.1,296.4c-1.7,0.4-3.5,0.9-5.1,1.5C852.6,297.2,854.3,296.7,856.1,296.4z"/>
</svg>
